<svg width="667" height="423" viewBox="0 0 667 423" fill="none" xmlns="http://www.w3.org/2000/svg">
<path d="M166.993 81.4396C198.234 28.5707 257.656 15.6331 280.103 10.7694C356.385 -5.81596 469.301 14.1254 523.815 104.202C571.625 183.238 544.999 267.721 541.112 279.297C534.65 298.703 518.422 345.298 472.508 376.815C400.988 425.939 292.007 414.898 254.692 364.218C237.152 340.385 251.34 329.442 230.933 287.322C203.627 230.951 169.714 232.313 153.874 187.177C136.092 136.205 164.078 86.3033 166.993 81.4396Z" fill="#CFE0FC"/>
<path d="M289.485 85.4888L284.001 78.408L275.126 82.5581C273.566 81.1306 271.902 79.8784 270.171 78.7858L271.785 69.1264L263.494 65.7176L257.902 73.7577C255.868 73.3194 253.783 73.0784 251.707 72.9659L248.276 63.8033L239.377 65.01L238.543 74.7436C236.597 75.3713 234.637 76.1808 232.792 77.1629L225.251 70.9759L218.163 76.4602L222.31 85.3271C220.88 86.8872 219.626 88.5512 218.532 90.2816L208.905 88.6589L205.489 96.9464L213.493 102.545C213.053 104.579 212.811 106.662 212.697 108.737L203.526 112.172L204.728 121.065L214.467 121.892C215.094 123.837 215.903 125.795 216.885 127.638L210.651 135.193L216.135 142.274L225.01 138.124C226.57 139.552 228.234 140.804 229.965 141.897L228.351 151.556L236.641 154.965L242.249 146.962C244.283 147.401 246.368 147.642 248.444 147.754L251.875 156.917L260.775 155.71L261.608 145.976C263.555 145.349 265.515 144.539 267.359 143.557L274.916 149.782L282.004 144.297L277.857 135.431C279.287 133.87 280.541 132.206 281.635 130.476L291.262 132.099L294.678 123.811L286.674 118.212C287.114 116.179 287.356 114.095 287.47 112.02L296.641 108.586L295.439 99.6928L285.7 98.8659C285.073 96.9207 284.264 94.9624 283.282 93.1197L289.485 85.4888ZM264.221 128.587C254.167 136.398 239.638 134.551 231.851 124.455C224.025 114.374 225.898 99.8911 235.952 92.0799C246.007 84.2688 260.535 86.1154 268.323 96.2119C276.148 106.293 274.276 120.776 264.221 128.587Z" fill="#F3F7FE"/>
<path d="M346.001 44.789L341.293 40.817L335.93 44.9162C334.673 44.2081 333.373 43.6057 332.028 43.1092L331.713 36.4028L325.6 35.2899L322.991 41.4948C321.555 41.5184 320.112 41.6322 318.715 41.8584L315.056 36.1822L309.273 38.3078L310.137 44.9629C308.904 45.6913 307.754 46.5165 306.636 47.4166L300.666 44.3162L296.694 49.0243L300.794 54.3872C300.085 55.6438 299.483 56.9443 298.987 58.2888L292.28 58.6043L291.205 64.7018L297.41 67.3106C297.433 68.7471 297.547 70.1901 297.773 71.5867L292.097 75.2456L294.223 81.0292L300.878 80.1652C301.606 81.3982 302.431 82.5475 303.331 83.6658L300.247 89.6729L304.955 93.6448L310.317 89.5456C311.574 90.2537 312.875 90.8561 314.219 91.3526L314.535 98.059L320.595 99.1499L323.203 92.945C324.64 92.9215 326.083 92.8076 327.48 92.5814L331.138 98.2576L336.922 96.1321L336.058 89.4769C337.291 88.7486 338.44 87.9233 339.559 87.0233L345.566 90.1082L349.538 85.4001L345.438 80.0372C346.147 78.7806 346.749 77.4801 347.245 76.1356L353.952 75.8201L355.027 69.7226L348.875 67.1358C348.852 65.6993 348.738 64.2563 348.512 62.8596L354.188 59.2007L352.062 53.4172L345.407 54.2812C344.679 53.0481 343.854 51.8989 342.954 50.7806L346.001 44.789ZM335.292 77.4347C329.65 84.1473 319.67 85.0258 312.92 79.3991C306.207 73.757 305.313 63.7397 310.956 57.0271C316.598 50.3145 326.578 49.436 333.328 55.0627C340.04 60.7049 340.934 70.7221 335.292 77.4347Z" fill="#F3F7FE"/>
<path d="M488.947 90H137.053C129.263 90 123 96.3071 123 104.033V344.967C123 352.745 129.316 359 137.053 359H495.526C499.684 359 503 355.636 503 351.537V104.033C503 96.2546 496.737 90 488.947 90Z" fill="white"/>
<path d="M473.355 130.984H152.487C150.82 130.984 149.406 129.62 149.406 127.903V117.85C149.406 116.183 150.77 114.769 152.487 114.769H473.304C474.971 114.769 476.386 116.133 476.386 117.85V127.903C476.386 129.62 475.022 130.984 473.355 130.984Z" fill="#CFE0FC"/>
<path d="M149.456 142.855V325.97C149.456 331.779 154.205 336.528 160.014 336.528H465.828C471.637 336.528 476.386 331.779 476.386 325.97V142.855H149.456Z" fill="#CFE0FC"/>
<path d="M510.125 354.006L130.917 354.006C126.876 354.006 123.593 357.239 123.593 361.179V362.846C123.593 369.766 129.352 375.424 136.424 375.424L509.266 374.565C516.338 374.565 517.5 369.817 517.5 362.896V361.229C517.449 357.239 514.166 354.006 510.125 354.006Z" fill="white"/>
<path d="M136.424 376.181C128.947 376.181 122.835 370.22 122.835 362.845V361.178C122.835 356.784 126.472 353.248 130.918 353.248H506.918C511.363 353.248 515 356.784 515 361.178V362.845C515 368.857 514.293 375.272 506.008 375.272L136.424 376.181ZM130.918 354.763C127.28 354.763 124.351 357.642 124.351 361.178V362.845C124.351 369.362 129.756 374.666 136.424 374.666L506.008 373.807C512.272 373.807 513.485 369.968 513.485 362.896V361.229C513.485 357.693 510.555 354.814 506.918 354.814H130.918V354.763Z" fill="#0E1520"/>
<path d="M162.59 296.521H367.123C370.305 296.521 372.932 293.945 372.932 290.712V156.798C372.932 153.616 370.356 150.989 367.123 150.989H162.59C159.408 150.989 156.781 153.565 156.781 156.798V290.763C156.781 293.945 159.408 296.521 162.59 296.521Z" fill="#F3F7FE"/>
<path d="M159.408 327.385H466.232C467.697 327.385 468.859 326.223 468.859 324.758V313.998C468.859 312.533 467.697 311.372 466.232 311.372H159.408C157.943 311.372 156.781 312.533 156.781 313.998V324.758C156.781 326.223 157.943 327.385 159.408 327.385Z" fill="white"/>
<path d="M394.956 200.896H463.252C466.333 200.896 468.809 203.372 468.809 206.453V240.399C468.809 243.48 466.333 245.955 463.252 245.955H394.956C391.875 245.955 389.4 243.48 389.4 240.399V206.453C389.45 203.372 391.926 200.896 394.956 200.896Z" fill="#F3F7FE"/>
<path d="M394.956 251.664H463.252C466.333 251.664 468.809 254.139 468.809 257.22V291.166C468.809 294.247 466.333 296.722 463.252 296.722H394.956C391.875 296.722 389.4 294.247 389.4 291.166V257.22C389.45 254.139 391.926 251.664 394.956 251.664Z" fill="#F3F7FE"/>
<path d="M395.108 150.988H463.201C466.333 150.988 468.859 153.514 468.859 156.646V190.39C468.859 193.521 466.333 196.047 463.201 196.047H395.108C391.976 196.047 389.45 193.521 389.45 190.39V156.646C389.45 153.514 391.976 150.988 395.108 150.988Z" fill="#F3F7FE"/>
<path d="M494.215 359H137.759C129.594 359 123 352.364 123 344.265V104.735C123 96.5839 129.647 90 137.759 90H415.66C416.078 90 416.445 90.3658 416.445 90.7838C416.445 91.2018 416.078 91.5676 415.66 91.5676H137.759C130.484 91.5676 124.57 97.4722 124.57 104.735V344.265C124.57 351.528 130.484 357.432 137.759 357.432H494.215C494.634 357.432 495 357.798 495 358.216C495 358.686 494.634 359 494.215 359Z" fill="#0E1520"/>
<path d="M131.787 359H489.202C497.388 359 504 352.364 504 344.265V104.735C504 96.5839 497.336 90 489.202 90H210.554C210.134 90 209.767 90.3658 209.767 90.7838C209.767 91.2018 210.134 91.5676 210.554 91.5676H489.202C496.496 91.5676 502.426 97.4722 502.426 104.735V344.265C502.426 351.528 496.496 357.432 489.202 357.432H131.787C131.367 357.432 131 357.798 131 358.216C131 358.686 131.367 359 131.787 359Z" fill="#0E1520"/>
<path d="M119.703 357.495C123.896 348.907 124.25 340.269 119.703 331.53L122.987 327.59L236.947 330.52L233.866 359.01L122.785 360.021L119.703 357.495Z" fill="white"/>
<path d="M122.734 360.778C122.583 360.778 122.38 360.727 122.229 360.626L119.148 358.1C118.895 357.898 118.794 357.494 118.945 357.191C123.239 348.351 123.239 340.067 118.945 331.883C118.794 331.631 118.844 331.277 119.047 331.025L122.33 327.085C122.482 326.883 122.684 326.832 122.936 326.832L236.897 329.762C237.099 329.762 237.301 329.863 237.452 330.014C237.604 330.166 237.654 330.368 237.654 330.57L234.573 359.06C234.523 359.464 234.219 359.717 233.815 359.717L122.734 360.778ZM120.612 357.242L122.987 359.212L233.108 358.202L236.038 331.176L123.34 328.297L120.612 331.58C124.755 339.814 124.755 348.452 120.612 357.242Z" fill="#0E1520"/>
<path d="M315.497 324.407H193.151H118.137C116.117 324.407 114.5 326.024 114.5 327.994C114.5 329.964 116.117 331.58 118.137 331.58H224.167C229.976 331.58 234.674 336.177 234.674 341.835V347.593C234.674 353.251 229.976 357.848 224.167 357.848H118.137C116.117 357.848 114.5 359.464 114.5 361.434C114.5 363.404 116.117 365.021 118.137 365.021H315.447C326.156 365.021 334.794 356.534 334.794 346.128V343.451C334.844 332.894 326.156 324.407 315.497 324.407Z" fill="#133A8A"/>
<path d="M340.552 405.483H158.044V368.607H340.502C335.905 381.084 335.753 393.359 340.552 405.483Z" fill="white"/>
<path d="M176.987 370.477H341.613C343.28 370.477 344.644 369.164 344.644 367.598C344.644 365.981 343.28 364.718 341.613 364.718H135.514C128.139 364.718 122.178 370.426 122.178 377.498V397.502C122.178 404.574 128.139 410.282 135.514 410.282H341.613C343.28 410.282 344.644 408.969 344.644 407.403C344.644 405.786 343.28 404.524 341.613 404.524H176.987C171.784 404.524 167.591 400.482 167.591 395.532V379.57C167.591 374.518 171.784 370.477 176.987 370.477Z" fill="#CFE0FC"/>
<path d="M281.097 371.234H251.647C251.243 371.234 250.889 370.881 250.889 370.476C250.889 370.072 251.243 369.719 251.647 369.719H281.097C281.501 369.719 281.855 370.072 281.855 370.476C281.855 370.881 281.551 371.234 281.097 371.234Z" fill="#0E1520"/>
<path d="M341.613 410.989H135.514C127.735 410.989 121.421 404.927 121.421 397.451V377.397C121.421 369.921 127.735 363.859 135.514 363.859L240.988 363.404C241.392 363.404 241.746 363.758 241.746 364.162C241.746 364.566 241.392 364.92 240.988 364.92L135.464 365.374C128.543 365.374 122.886 370.779 122.886 377.397V397.502C122.886 404.119 128.543 409.524 135.464 409.524H341.563C342.825 409.524 343.836 408.564 343.836 407.402C343.836 406.241 342.825 405.281 341.563 405.281H246.949C246.545 405.281 246.191 404.927 246.191 404.523C246.191 404.119 246.545 403.765 246.949 403.765H341.664C343.735 403.765 345.452 405.432 345.452 407.402C345.402 409.372 343.735 410.989 341.613 410.989Z" fill="#0E1520"/>
<path d="M290.947 383.055H257.557C257.153 383.055 256.799 382.701 256.799 382.297C256.799 381.893 257.153 381.54 257.557 381.54H290.947C291.351 381.54 291.705 381.893 291.705 382.297C291.705 382.752 291.402 383.055 290.947 383.055Z" fill="#CADDFF"/>
<path d="M248.97 393.359H245.888C245.484 393.359 245.13 393.006 245.13 392.601C245.13 392.197 245.484 391.844 245.888 391.844H248.97C249.374 391.844 249.727 392.197 249.727 392.601C249.727 393.006 249.374 393.359 248.97 393.359Z" fill="#99B9FF"/>
<path d="M451.307 70.3491L441.545 90.9238C437.6 99.3634 448.447 112.7 465.786 120.707C483.124 128.714 500.363 128.382 504.311 119.9L514.073 99.3256L451.307 70.3491Z" fill="#F3F7FE"/>
<path d="M486.514 127.036C479.957 126.58 472.657 124.584 465.533 121.283C453.301 115.629 443.899 107.197 441.005 99.3017C439.826 96.0742 439.818 93.1406 441.012 90.6307L450.775 70.056C450.925 69.7264 451.315 69.626 451.605 69.7312L514.368 98.75C514.534 98.8041 514.652 98.9398 514.683 99.112C514.756 99.2871 514.744 99.4563 514.647 99.6196L504.885 120.194C502.884 124.518 497.614 126.957 490.079 127.113C488.928 127.161 487.741 127.121 486.514 127.036ZM451.587 71.2177L442.119 91.2178C441.075 93.3981 441.107 95.9932 442.179 98.9157C444.93 106.418 454.297 114.763 466.035 120.171C483.044 128.027 499.936 127.799 503.73 119.689L513.197 99.6888L451.587 71.2177Z" fill="#0E1520"/>
<path d="M518.743 93.9111L492.927 65.3789C492.41 64.8753 491.751 64.5744 491.031 64.5244L452.436 63.2856L439.627 57.379L436.732 63.5538C436.536 63.9228 436.586 64.4363 436.943 64.8012L473.903 101.165C474.421 101.668 475.08 101.969 475.799 102.019L527.589 106.683C528.096 106.719 528.498 106.449 528.696 106.038L531.591 99.863L518.743 93.9111Z" fill="#CFE0FC"/>
<path d="M527.59 107.278C527.547 107.275 527.547 107.275 527.59 107.278L475.8 102.614C474.954 102.555 474.132 102.158 473.535 101.564L436.575 65.2004C436.057 64.6968 435.899 63.9206 436.242 63.2644L439.137 57.0896C439.287 56.76 439.68 56.6173 439.967 56.7648L452.652 62.6203L491.12 63.8502C492.009 63.912 492.831 64.3092 493.428 64.9033L519.161 93.3874L531.846 99.2429C532.013 99.2969 532.131 99.4327 532.161 99.6048C532.234 99.7799 532.222 99.9491 532.126 100.112L529.231 106.287C528.93 106.946 528.309 107.328 527.59 107.278ZM439.952 58.209L437.309 63.8062C437.261 63.8879 437.201 64.1387 437.401 64.3227L474.361 100.686C474.758 101.096 475.296 101.304 475.843 101.384L527.633 106.049C527.929 106.069 528.07 105.866 528.076 105.782L530.718 100.185L518.49 94.4884C518.408 94.4402 518.326 94.392 518.287 94.3467L492.472 65.8145C492.114 65.4496 491.579 65.1998 491.029 65.1616L452.434 63.9228C452.349 63.9169 452.265 63.9111 452.183 63.8629L439.952 58.209Z" fill="#0E1520"/>
<path d="M531.338 98.6131L494.378 62.2496C493.86 61.746 493.201 61.4451 492.482 61.3951L440.692 56.7309C439.677 56.6603 439.081 57.8941 439.841 58.5845L476.801 94.948C477.319 95.4516 477.978 95.7525 478.697 95.8025L530.486 100.467C531.502 100.537 532.098 99.3035 531.338 98.6131Z" fill="#F3F7FE"/>
<path d="M530.442 101.1L478.653 96.4361C477.807 96.3773 476.984 95.98 476.388 95.3859L439.427 59.0224C438.91 58.5189 438.751 57.7427 439.094 57.0865C439.395 56.4273 440.105 56.009 440.821 56.1013L492.61 60.7655C493.456 60.8244 494.279 61.2216 494.875 61.8157L531.835 98.1792C532.353 98.6828 532.512 99.4589 532.168 100.115C531.825 100.771 531.204 101.153 530.442 101.1ZM440.69 57.3675C440.394 57.3469 440.295 57.5525 440.247 57.6342C440.198 57.7158 440.141 57.9244 440.338 58.1506L477.299 94.5141C477.695 94.9243 478.233 95.1317 478.78 95.2123L530.57 99.8765C530.866 99.8971 531.007 99.6944 531.013 99.6098C531.062 99.5281 531.119 99.3195 530.922 99.0933L493.961 62.7298C493.565 62.3197 493.027 62.1122 492.48 62.0317L440.69 57.3675Z" fill="#0E1520"/>
<path d="M505.681 117.317C504.711 117.207 503.854 117.913 503.705 118.838L499.233 145.859L506.621 146.585L507.334 119.218C507.401 118.245 506.654 117.385 505.681 117.317Z" fill="#115DF6"/>
<path d="M506.579 147.177L499.149 146.448C498.98 146.436 498.816 146.339 498.698 146.204C498.58 146.068 498.55 145.896 498.561 145.727L503.033 118.706C503.251 117.403 504.419 116.507 505.727 116.64C507.036 116.773 508.023 117.862 507.974 119.177L507.261 146.544C507.249 146.713 507.195 146.88 507.059 146.998C506.921 147.158 506.749 147.189 506.579 147.177ZM499.953 145.271L505.991 145.861L506.699 119.173C506.701 118.536 506.229 117.993 505.594 117.948C504.959 117.904 504.377 118.331 504.291 118.963L499.953 145.271Z" fill="#0E1520"/>
<path d="M505.316 117.674C504.935 117.648 504.702 117.334 504.725 116.995L506.253 98.6959L485.681 77.8821C485.442 77.6529 485.429 77.227 485.701 76.9908C485.93 76.7517 486.356 76.7388 486.592 77.0103L507.406 98.011C507.524 98.1467 507.596 98.3218 507.585 98.491L506.036 117.087C505.968 117.464 505.696 117.7 505.316 117.674Z" fill="#0E1520"/>
<path d="M320.5 238L357.954 238V239.4H320.5V238Z" fill="#0E1520"/>
<path d="M295.5 186L344.454 186V187.4L295.5 187.4V186Z" fill="#115DF6"/>
<rect x="259" y="195" width="92" height="1.4" fill="#0E1520"/>
<rect x="259" y="206" width="92" height="1.4" fill="#0E1520"/>
<rect x="243" y="218.91" width="42.6956" height="1.4" fill="#115DF6"/>
<rect x="270" y="175" width="42.6956" height="1.4" fill="#0E1520"/>
<path d="M399 273.463H425V274.863H399V273.463Z" fill="#115DF6"/>
<rect x="399" y="282.463" width="42.6956" height="1.4" fill="#0E1520"/>
<rect x="265" y="229" width="86" height="1.4" fill="#0E1520"/>
<path d="M243.065 398.927C244.073 397.866 250.012 379.465 250.012 379.465L261.731 387.791L248.898 405.025L243.065 398.927Z" fill="white"/>
<path d="M248.898 405.82C248.686 405.82 248.474 405.714 248.315 405.555L242.482 399.404C242.217 399.086 242.217 398.609 242.482 398.29C243.171 397.389 246.459 387.738 249.27 379.147C249.323 378.882 249.535 378.723 249.8 378.617C250.065 378.511 250.33 378.564 250.489 378.723L262.209 387.048C262.368 387.154 262.474 387.366 262.527 387.579C262.58 387.791 262.527 388.003 262.368 388.162L249.535 405.396C249.376 405.714 249.164 405.82 248.898 405.82C248.951 405.82 248.898 405.82 248.898 405.82ZM244.073 398.768L248.845 403.805L260.618 387.95L250.436 380.685C248.739 386.094 245.452 396.01 244.073 398.768Z" fill="#0E1520"/>
<path d="M264.171 422.206L256.375 422.153C251.232 422.1 246.459 419.502 243.649 415.207L235.959 403.01C233.838 399.616 235.005 395.162 238.558 393.306C241.793 391.609 245.133 389.912 245.929 390.018C247.52 390.177 248.156 397.76 248.156 397.76L255.103 398.025C255.103 398.025 258.55 412.29 261.519 413.881C263.693 415.047 265.231 416.797 266.292 418.388C267.352 420.032 266.133 422.206 264.171 422.206Z" fill="#0E1520"/>
<path d="M263.375 419.979C263.322 419.979 263.322 419.979 263.269 419.979L252.61 418.388C249.959 418.017 247.679 416.479 246.3 414.146L236.914 398.449C236.702 398.078 236.808 397.601 237.179 397.336C237.55 397.124 238.027 397.23 238.293 397.601L247.679 413.297C248.792 415.153 250.701 416.426 252.823 416.744L263.481 418.335C263.905 418.388 264.224 418.812 264.171 419.236C264.118 419.714 263.799 419.979 263.375 419.979Z" fill="white"/>
<path d="M250.224 408.154C249.853 408.154 249.535 407.942 249.482 407.571C249.376 407.146 249.641 406.722 250.065 406.616L256.004 405.025C256.428 404.919 256.853 405.184 256.959 405.609C257.065 406.033 256.8 406.457 256.375 406.563L250.436 408.154C250.383 408.154 250.33 408.154 250.224 408.154Z" fill="#FD5444"/>
<path d="M253.353 411.176C252.982 411.176 252.663 410.911 252.557 410.593C252.451 410.169 252.716 409.745 253.141 409.639L257.118 408.684C257.542 408.578 257.966 408.843 258.072 409.267C258.178 409.692 257.913 410.116 257.489 410.222L253.512 411.176C253.459 411.176 253.406 411.176 253.353 411.176Z" fill="#FD5444"/>
<path d="M283.049 395.374L296.624 409.055L303.836 406.404L291.268 388.958L283.049 395.374Z" fill="white"/>
<path d="M296.624 409.85C296.412 409.85 296.2 409.744 296.041 409.638L282.466 395.957C282.306 395.797 282.2 395.585 282.253 395.32C282.253 395.108 282.359 394.896 282.572 394.737L290.844 388.267C291.003 388.108 291.215 388.055 291.427 388.108C291.64 388.161 291.852 388.267 291.958 388.426L304.472 405.873C304.632 406.085 304.685 406.35 304.579 406.562C304.525 406.774 304.313 406.986 304.101 407.093L296.889 409.744C296.783 409.85 296.73 409.85 296.624 409.85ZM284.216 395.479L296.836 408.153L302.563 406.032L291.109 390.07L284.216 395.479Z" fill="#0E1520"/>
<path d="M292.329 406.934C292.329 406.934 291.693 412.767 292.806 417.858C293.389 420.615 295.882 422.524 298.639 422.524H331.994C334.381 422.524 335.441 419.555 333.638 418.017C327.699 413.032 316.775 405.449 303.359 403.222L299.594 408.472L292.329 406.934Z" fill="#0E1520"/>
<path d="M330.404 418.706H295.829C295.405 418.706 295.033 418.335 295.033 417.911C295.033 417.486 295.405 417.115 295.829 417.115H330.404C330.828 417.115 331.199 417.486 331.199 417.911C331.199 418.388 330.828 418.706 330.404 418.706Z" fill="white"/>
<path d="M311.101 412.608C310.995 412.608 310.889 412.608 310.783 412.555C310.359 412.396 310.2 411.919 310.359 411.494L312.215 407.04C312.374 406.616 312.851 406.457 313.275 406.616C313.7 406.775 313.859 407.252 313.7 407.676L311.843 412.078C311.737 412.396 311.419 412.608 311.101 412.608Z" fill="#FD5444"/>
<path d="M317.146 413.775C317.04 413.775 316.987 413.775 316.881 413.722C316.457 413.562 316.245 413.138 316.351 412.714L317.677 408.684C317.836 408.26 318.26 408.047 318.684 408.153C319.108 408.313 319.321 408.737 319.214 409.161L317.889 413.191C317.783 413.562 317.465 413.775 317.146 413.775Z" fill="#FD5444"/>
<path d="M211.089 299.87C211.089 299.87 273.185 292.658 291.693 308.619C310.146 324.581 262.527 393.359 262.527 393.359L247.467 382.17L261.731 333.596L204.301 317.316L211.089 299.87Z" fill="#0E1520"/>
<path d="M176.885 331.474C185.9 334.338 202.074 338.05 224.611 337.731C231.028 337.625 236.967 341.178 239.83 346.905C246.512 360.003 260.989 383.601 284.534 398.927L295.776 392.881L267.034 328.239C264.436 322.353 259.504 317.74 253.459 315.512L196.559 294.619C196.559 294.619 178.9 289.687 170.257 305.437C168.719 308.247 165.855 303.21 165.166 305.49C162.833 313.285 169.143 329.035 176.885 331.474Z" fill="#0E1520"/>
<path d="M225.195 249.704C225.195 249.704 230.656 299.286 267.352 302.574L225.195 303.157C225.195 303.157 209.604 271.552 208.968 259.196C208.331 246.894 225.195 249.704 225.195 249.704Z" fill="white"/>
<path d="M225.195 303.899C224.876 303.899 224.611 303.74 224.505 303.475C223.869 302.202 208.809 271.551 208.172 259.249C208.013 256.014 208.968 253.468 210.983 251.665C215.808 247.37 224.929 248.855 225.354 248.908C225.725 248.961 225.99 249.226 225.99 249.597C225.99 249.703 227.422 262.059 233.255 274.574C241.05 291.278 252.504 300.399 267.405 301.725C267.83 301.778 268.148 302.149 268.148 302.52C268.148 302.944 267.777 303.262 267.352 303.262L225.195 303.899ZM221.323 250.181C218.407 250.181 214.483 250.658 212.043 252.832C210.4 254.317 209.604 256.438 209.763 259.143C210.347 270.385 223.816 298.437 225.725 302.308L259.557 301.831C247.838 298.331 238.346 289.263 231.823 275.21C226.626 264.074 224.876 253.044 224.505 250.393C223.816 250.287 222.702 250.181 221.323 250.181Z" fill="#0E1520"/>
<path d="M173.014 218.151C180.12 216.454 183.09 216.454 208.968 217.409C215.278 217.621 222.808 225.575 223.551 231.833C221.536 237.878 212.256 267.627 228.482 290.854C230.763 294.142 233.891 297.747 238.187 301.247C235.8 303.209 232.035 305.755 226.998 307.24C218.672 309.732 214.43 307.027 207.748 307.24C189.931 307.77 183.408 327.603 171.954 325.11C168.878 324.421 164.795 322.035 161.03 314.027C158.856 307.346 156.947 299.55 155.886 290.695C152.969 266.726 157.742 246.787 161.984 234.272C163.151 230.348 164.583 220.113 173.014 218.151Z" fill="#133A8A"/>
<path d="M230.02 255.218C230.02 255.218 225.831 221.651 213.793 218.788L216.551 262.907L230.02 255.218Z" fill="#133A8A"/>
<path d="M151.06 253.999C150.954 257.976 151.007 261.635 151.167 264.604C152.227 283.642 154.826 303.74 156.363 320.338C156.682 323.837 151.113 319.118 143.902 319.171C141.833 319.171 139.818 319.913 138.228 321.239C135.311 323.625 130.22 327.815 130.804 327.815H157.318C161.507 327.815 164.954 324.527 165.166 320.338L168.719 246.416L151.06 253.999Z" fill="white"/>
<path d="M157.371 328.61H130.273L130.061 328.08C129.849 327.39 129.743 327.178 137.803 320.656C139.553 319.224 141.78 318.428 143.955 318.428C147.348 318.428 150.424 319.436 152.651 320.178C153.818 320.55 155.197 321.027 155.621 320.921C155.621 320.868 155.674 320.762 155.621 320.497C155.144 315.406 154.56 309.997 153.977 304.27C152.598 291.331 151.167 277.915 150.424 264.71C150.265 261.847 150.212 258.294 150.318 254.052V253.521L169.621 245.196L166.015 320.391C165.749 325.004 161.984 328.61 157.371 328.61ZM132.606 327.019H157.318C161.083 327.019 164.159 324.05 164.371 320.284L167.871 247.635L151.856 254.529C151.803 258.453 151.803 261.847 151.962 264.551C152.704 277.702 154.136 291.066 155.515 304.005C156.098 309.732 156.682 315.088 157.212 320.231C157.265 321.08 157.106 321.663 156.628 322.034C155.727 322.777 154.295 322.3 152.174 321.557C150.053 320.868 147.136 319.913 144.008 319.913C142.152 319.913 140.296 320.603 138.811 321.769C135.417 324.58 133.561 326.118 132.606 327.019Z" fill="#0E1520"/>
<path d="M168.772 246.31C163.257 248.643 156.788 251.401 151.114 253.84C151.114 253.893 151.114 253.999 151.114 254.052L168.772 246.416V246.31Z" fill="white"/>
<path d="M150.265 255.219L150.318 253.257L150.795 253.044C155.674 250.923 161.613 248.431 168.454 245.514L169.621 245.037L169.514 246.893L150.265 255.219Z" fill="#0E1520"/>
<path d="M147.985 261.369C147.985 261.369 149.151 241.431 150.901 233.741C154.507 217.568 175.507 217.355 175.507 217.355L171.848 258.559L147.985 261.369Z" fill="#133A8A"/>
<path d="M193.589 217.409L194.279 207.334C194.756 207.281 195.074 207.281 195.18 207.281C197.991 207.228 198.892 206.326 199.157 204.046C199.317 202.614 199.37 200.44 198.68 197.789C198.627 197.523 198.627 197.205 198.733 196.94L199.21 195.826C199.317 195.455 199.157 195.084 198.892 194.819L198.627 194.607C197.726 193.864 196.93 192.91 196.347 191.902C195.764 190.948 194.809 189.198 194.173 188.88C192.317 187.978 184.84 184.054 180.65 190.948C177.363 196.304 182.719 203.622 184.681 206.061C185.158 206.644 181.499 218.045 181.499 218.045L176.779 219.159C176.779 219.159 180.385 225.576 191.415 222.924C199.264 221.015 197.991 218.099 197.991 218.099L193.589 217.409Z" fill="white"/>
<path d="M186.325 224.356C178.901 224.356 176.196 219.742 176.09 219.53C175.984 219.318 175.931 219.053 176.037 218.841C176.143 218.629 176.355 218.47 176.567 218.364L180.81 217.356C182.294 212.636 183.779 207.493 183.832 206.326C181.393 203.25 176.514 195.985 179.908 190.47C182.825 185.645 187.703 184.849 194.279 188.031L194.491 188.137C195.233 188.508 195.923 189.622 196.771 191.054L197.036 191.478C197.62 192.486 198.362 193.281 199.158 193.97L199.423 194.182C199.953 194.607 200.218 195.349 200.006 196.038C200.006 196.092 200.006 196.091 199.953 196.145L199.476 197.258C199.423 197.364 199.423 197.47 199.476 197.629C200.059 199.857 200.218 201.978 200.006 204.205C199.688 207.015 198.362 208.129 195.233 208.182C195.18 208.182 195.127 208.182 195.074 208.182L194.438 216.826L198.15 217.356C198.415 217.409 198.68 217.568 198.786 217.833C198.839 217.939 199.158 218.788 198.627 219.848C197.779 221.492 195.445 222.818 191.68 223.719C189.612 224.144 187.862 224.356 186.325 224.356ZM178.158 219.583C179.59 221.121 183.408 223.985 191.256 222.076C195.499 221.068 196.771 219.795 197.142 219.106C197.248 218.947 197.248 218.841 197.301 218.735L193.483 218.151C193.059 218.098 192.794 217.727 192.794 217.303L193.483 207.228C193.536 206.856 193.802 206.538 194.226 206.485C194.756 206.432 195.074 206.432 195.18 206.432C197.673 206.379 198.15 205.743 198.362 203.887C198.574 201.872 198.415 199.91 197.885 197.894C197.779 197.417 197.779 196.94 197.991 196.516L198.415 195.455C198.415 195.402 198.415 195.349 198.362 195.296L198.097 195.084C197.142 194.289 196.294 193.334 195.605 192.167L195.339 191.743C194.968 191.107 194.12 189.675 193.749 189.463L193.536 189.357C191.415 188.349 184.893 185.168 181.234 191.213C178.317 195.985 183.037 202.72 185.211 205.425C185.529 205.796 185.953 206.326 182.188 218.151C182.082 218.417 181.87 218.629 181.605 218.682L178.158 219.583Z" fill="#0E1520"/>
<path d="M182.931 182.145C184.946 181.721 187.279 182.039 188.287 181.668C189.877 181.085 189.93 179.176 192.105 178.645C194.756 178.009 195.87 179.123 196.93 180.714C197.089 180.979 197.248 181.297 197.408 181.615C199.104 186.123 196.983 188.297 196.029 188.986C196.029 188.986 190.037 192.062 189.029 192.963C188.074 193.812 186.961 195.774 187.65 198.584C187.756 198.955 187.597 199.327 187.279 199.486C186.908 199.698 186.431 199.592 186.218 199.221C185.423 198.107 183.726 195.933 182.506 196.41C180.969 197.046 181.446 201.607 184.84 202.137C185.847 202.296 186.696 203.357 186.59 204.417C186.537 205.107 185.847 205.955 184.893 206.22C184.309 206.379 183.673 206.114 183.143 205.796C180.969 204.417 174.764 198.478 174.022 193.175C173.067 186.812 180.226 182.729 182.931 182.145Z" fill="#0E1520"/>
<path d="M195.021 207.971C194.862 207.971 192.37 207.864 190.567 206.327C190.249 206.061 190.196 205.584 190.461 205.266C190.726 204.948 191.203 204.895 191.521 205.16C192.953 206.38 195.021 206.486 195.021 206.486C195.445 206.486 195.764 206.857 195.711 207.228C195.764 207.652 195.445 207.971 195.021 207.971Z" fill="#0E1520"/>
<path d="M294.609 307.611H212.574C210.24 307.611 208.331 305.702 208.331 303.369V302.732H298.798V303.369C298.851 305.702 296.942 307.611 294.609 307.611Z" fill="#CFE0FC"/>
<path d="M294.609 308.407H212.574C209.816 308.407 207.536 306.18 207.536 303.369V302.733C207.536 302.309 207.907 301.938 208.331 301.938H298.798C299.223 301.938 299.594 302.309 299.594 302.733V303.369C299.647 306.18 297.367 308.407 294.609 308.407ZM209.127 303.528C209.233 305.331 210.718 306.816 212.574 306.816H294.609C296.465 306.816 297.95 305.384 298.056 303.528H209.127Z" fill="#0E1520"/>
<path d="M298.851 302.839H247.095L263.534 254.424C264.542 252.886 266.239 251.984 268.095 251.984H311.843C313.806 251.984 315.131 253.893 314.442 255.59C314.177 256.28 313.912 256.916 313.699 257.605L298.851 302.839Z" fill="#CFE0FC"/>
<path d="M298.851 303.634H247.095C246.83 303.634 246.618 303.528 246.459 303.316C246.3 303.104 246.247 302.839 246.353 302.574L262.792 254.159C262.792 254.106 262.845 254.053 262.898 253.999C264.012 252.25 265.974 251.189 268.095 251.189H311.843C313.063 251.189 314.124 251.772 314.813 252.727C315.449 253.681 315.609 254.848 315.184 255.909L314.972 256.492C314.76 256.969 314.601 257.446 314.442 257.924L299.594 303.104C299.488 303.422 299.17 303.634 298.851 303.634ZM248.156 302.043H298.268L312.904 257.393C313.063 256.863 313.275 256.386 313.434 255.909L313.646 255.325C313.859 254.742 313.806 254.159 313.434 253.628C313.063 253.098 312.48 252.78 311.79 252.78H268.042C266.504 252.78 265.072 253.522 264.224 254.795L248.156 302.043Z" fill="#0E1520"/>
<path d="M279.602 276.749C278.966 278.817 279.92 280.885 281.723 281.415C283.526 281.946 285.435 280.726 286.071 278.658C286.708 276.59 285.753 274.521 283.95 273.991C282.147 273.461 280.238 274.734 279.602 276.749Z" fill="white"/>
<path d="M294.325 303.634H265.795C265.371 303.634 265 303.263 265 302.838C265 302.414 265.371 302.043 265.795 302.043H294.325C294.749 302.043 295.12 302.414 295.12 302.838C295.12 303.263 294.749 303.634 294.325 303.634Z" fill="#CFE0FC"/>
<path d="M429.874 191.564C429.6 191.564 429.36 191.324 429.36 191.05V157.628C429.36 157.354 429.6 157.114 429.874 157.114C430.148 157.114 430.388 157.354 430.388 157.628V191.05C430.388 191.358 430.148 191.564 429.874 191.564Z" fill="#115DF6"/>
<path d="M428.126 159.686L429.874 157.937L431.622 159.686V158.212L429.874 156.463L428.126 158.212V159.686Z" fill="#115DF6"/>
<path d="M455.034 178.195H403.548C403.274 178.195 403.034 177.955 403.034 177.681C403.034 177.407 403.274 177.167 403.548 177.167H455.034C455.309 177.167 455.549 177.407 455.549 177.681C455.549 177.955 455.309 178.195 455.034 178.195Z" fill="#115DF6"/>
<path d="M452.978 179.429L454.726 177.681L452.978 175.933H454.452L456.2 177.681L454.452 179.429H452.978Z" fill="#115DF6"/>
<path d="M429.977 189.268C423.875 189.268 418.905 184.297 418.905 178.196V171.923C418.905 166.37 414.415 161.879 408.862 161.879H403.514C403.24 161.879 403 161.639 403 161.365C403 161.091 403.24 160.851 403.514 160.851H408.862C414.963 160.851 419.933 165.821 419.933 171.923V178.196C419.933 183.749 424.424 188.239 429.977 188.239C435.53 188.239 440.021 183.749 440.021 178.196V171.923C440.021 165.821 444.991 160.851 451.092 160.851H454.212C454.486 160.851 454.726 161.091 454.726 161.365C454.726 161.639 454.486 161.879 454.212 161.879H451.092C445.539 161.879 441.049 166.37 441.049 171.923V178.196C441.049 184.332 436.079 189.268 429.977 189.268Z" fill="#0E1520"/>
<path d="M500.579 373.648C500.579 373.648 476.619 321.176 490.361 253.132C490.361 253.132 527.484 284.232 514.098 373.648H500.579Z" fill="#CFE0FC"/>
<path d="M514.098 374.317H500.579C500.311 374.317 500.088 374.184 499.954 373.916C499.91 373.782 493.886 360.486 489.647 339.024C485.721 319.213 482.598 288.248 489.692 252.999C489.737 252.776 489.915 252.597 490.138 252.508C490.361 252.419 490.629 252.463 490.807 252.642C491.209 252.954 500.311 260.762 507.896 279.636C514.857 296.993 521.728 327.423 514.768 373.782C514.723 374.094 514.455 374.317 514.098 374.317ZM501.025 372.979H513.518C520.256 327.245 513.518 297.261 506.647 280.127C500.534 264.867 493.261 256.881 490.807 254.471C484.025 289.006 487.149 319.347 490.986 338.801C494.779 358.032 499.999 370.659 501.025 372.979Z" fill="#0E1520"/>
<path d="M506.469 368.829C506.424 368.829 506.424 368.829 506.469 368.829C506.067 368.829 505.799 368.472 505.799 368.115C507.629 334.562 492.503 262.949 492.369 262.235C492.28 261.878 492.503 261.521 492.905 261.432C493.261 261.342 493.618 261.565 493.708 261.967C493.842 262.681 509.012 334.473 507.183 368.205C507.093 368.562 506.781 368.829 506.469 368.829Z" fill="white"/>
<path d="M524.673 288.336C524.673 288.336 493.841 344.065 512.403 368.204H522.308C522.308 368.16 542.164 324.612 524.673 288.336Z" fill="white"/>
<path d="M522.308 368.83H512.403C512.18 368.83 512.001 368.741 511.868 368.562C504.015 358.389 503.702 341.702 510.931 318.991C516.285 302.169 524.004 288.114 524.093 287.98C524.227 287.757 524.45 287.624 524.718 287.624C524.985 287.624 525.209 287.757 525.298 287.98C534.4 306.899 533.285 327.736 530.741 341.925C527.975 357.274 523.022 368.294 522.978 368.384C522.799 368.696 522.576 368.83 522.308 368.83ZM512.715 367.491H521.862C522.755 365.394 526.949 355.266 529.403 341.702C531.857 328.048 532.972 308.059 524.629 289.81C522.665 293.513 516.597 305.516 512.18 319.437C507.361 334.607 503.568 355.266 512.715 367.491Z" fill="#0E1520"/>
<path d="M517.043 370.302C516.686 370.302 516.374 370.034 516.374 369.677C515.482 346.654 523.959 288.828 524.048 288.203C524.093 287.846 524.45 287.578 524.807 287.623C525.164 287.668 525.432 288.025 525.387 288.382C525.298 288.962 516.865 346.698 517.757 369.588C517.713 369.989 517.4 370.302 517.043 370.302Z" fill="#0E1520"/>
<path d="M465.776 309.084C465.776 309.084 492.057 318.052 501.561 371.149H491.209C491.254 371.149 469.658 342.013 465.776 309.084Z" fill="white"/>
<path d="M501.561 371.818H491.209C490.986 371.818 490.807 371.729 490.674 371.551C490.45 371.238 468.944 341.879 465.107 309.173C465.062 308.95 465.152 308.727 465.33 308.593C465.509 308.46 465.732 308.415 465.955 308.46C466.222 308.549 472.781 310.869 480.59 319.793C487.729 327.958 497.277 343.485 502.23 371.06C502.274 371.238 502.23 371.461 502.096 371.595C501.962 371.729 501.784 371.818 501.561 371.818ZM491.566 370.48H500.757C495.849 343.798 486.613 328.717 479.653 320.73C473.852 314.082 468.676 311.137 466.535 310.155C470.55 340.407 489.424 367.49 491.566 370.48Z" fill="#0E1520"/>
<path d="M495.939 370.301C495.626 370.301 495.314 370.078 495.269 369.721C491.343 346.073 474.432 322.247 474.254 322.024C474.031 321.712 474.12 321.31 474.388 321.087C474.7 320.864 475.102 320.953 475.325 321.221C475.503 321.444 492.592 345.538 496.563 369.454C496.608 369.811 496.385 370.168 496.028 370.212C495.983 370.302 495.983 370.301 495.939 370.301Z" fill="#0E1520"/>
<path d="M475.905 366.955H540.736L542.208 397.608C542.565 405.149 536.586 411.395 529.046 411.395H492.012C483.088 411.395 475.905 404.167 475.905 395.243V366.955Z" fill="#133A8A"/>
<path d="M277.732 129.019C277.56 128.815 277.589 128.486 277.793 128.314L279.782 126.639C279.986 126.467 280.315 126.495 280.487 126.699C280.659 126.903 280.631 127.232 280.427 127.404L278.437 129.08C278.208 129.273 277.904 129.223 277.732 129.019Z" fill="#0E1520"/>
<path d="M273.115 132.907C272.943 132.703 272.972 132.374 273.176 132.203L275.165 130.527C275.369 130.355 275.698 130.383 275.87 130.587C276.042 130.791 276.014 131.12 275.81 131.292L273.82 132.968C273.616 133.14 273.287 133.111 273.115 132.907Z" fill="#0E1520"/>
<path d="M275.289 128.809L273.613 126.82C273.441 126.616 273.469 126.287 273.673 126.115C273.877 125.943 274.206 125.971 274.378 126.175L276.054 128.165C276.226 128.369 276.198 128.698 275.994 128.87C275.789 129.041 275.461 129.013 275.289 128.809Z" fill="#0E1520"/>
<path d="M279.177 133.427L277.501 131.437C277.33 131.233 277.358 130.904 277.562 130.732C277.766 130.561 278.095 130.589 278.267 130.793L279.942 132.782C280.114 132.986 280.086 133.315 279.882 133.487C279.678 133.659 279.349 133.631 279.177 133.427Z" fill="#0E1520"/>
<path d="M350 301.463C349.393 301.463 348.787 301.371 348.227 301.141C346.966 300.681 345.986 299.714 345.426 298.472C344.306 295.94 345.473 292.995 347.993 291.89C349.207 291.338 350.56 291.338 351.773 291.798C353.034 292.258 354.014 293.225 354.574 294.467C355.694 296.999 354.527 299.945 352.007 301.049C351.353 301.325 350.653 301.463 350 301.463ZM348.553 293.133C346.733 293.961 345.893 296.078 346.733 297.919C347.106 298.794 347.853 299.484 348.74 299.852C349.627 300.175 350.607 300.175 351.447 299.76C353.267 298.932 354.107 296.815 353.267 294.974C352.894 294.099 352.147 293.409 351.26 293.041C350.373 292.718 349.393 292.764 348.553 293.133Z" fill="#0E1520"/>
<path d="M166 123.002C166 121.898 165.105 121.002 164 121.002C162.895 121.002 162 121.898 162 123.002C162 124.107 162.895 125.002 164 125.002C165.105 125.002 166 124.107 166 123.002Z" fill="#FD5444"/>
<path d="M174 123.022C174 121.917 173.105 121.022 172 121.022C170.895 121.022 170 121.917 170 123.022C170 124.127 170.895 125.022 172 125.022C173.105 125.022 174 124.127 174 123.022Z" fill="#133A8A"/>
<path d="M182 123C182 121.895 181.105 121 180 121C178.895 121 178 121.895 178 123C178 124.105 178.895 125 180 125C181.105 125 182 124.105 182 123Z" fill="#133A8A"/>
<path d="M492.933 204.896C492.913 205.068 492.789 205.228 492.639 205.315L490.497 206.314C490.24 206.423 489.938 206.317 489.795 206.056C489.686 205.799 489.792 205.497 490.053 205.354L492.196 204.355C492.453 204.246 492.754 204.352 492.898 204.613C492.924 204.686 492.946 204.793 492.933 204.896Z" fill="#0E1520"/>
<path d="M485.443 208.326C485.422 208.498 485.299 208.658 485.149 208.744L483.006 209.744C482.749 209.853 482.448 209.747 482.305 209.486C482.196 209.228 482.302 208.927 482.563 208.784L484.705 207.784C484.963 207.676 485.264 207.781 485.407 208.043C485.429 208.15 485.451 208.257 485.443 208.326Z" fill="#0E1520"/>
<path d="M486.917 204.457C486.896 204.628 486.773 204.788 486.623 204.875C486.366 204.984 486.064 204.878 485.921 204.617L484.99 202.482C484.882 202.225 484.987 201.924 485.249 201.781C485.506 201.672 485.807 201.778 485.95 202.039L486.881 204.173C486.942 204.25 486.929 204.353 486.917 204.457Z" fill="#0E1520"/>
<path d="M490.213 211.896C490.193 212.068 490.069 212.228 489.919 212.315C489.662 212.424 489.361 212.318 489.217 212.056L488.287 209.922C488.178 209.665 488.284 209.364 488.545 209.221C488.802 209.112 489.103 209.218 489.247 209.479L490.177 211.613C490.238 211.69 490.226 211.793 490.213 211.896Z" fill="#0E1520"/>
<path d="M522.331 234.701C522.301 234.958 522.238 235.211 522.143 235.46C521.536 237.014 519.795 237.75 518.248 237.142C517.504 236.858 516.926 236.268 516.591 235.545C516.256 234.821 516.26 233.975 516.544 233.228C517.151 231.674 518.892 230.938 520.44 231.546C521.74 232.06 522.489 233.386 522.331 234.701ZM517.347 234.105C517.304 234.458 517.358 234.823 517.511 235.166C517.709 235.678 518.118 236.053 518.614 236.242C519.666 236.661 520.829 236.149 521.247 235.092C521.665 234.036 521.157 232.869 520.105 232.45C519.053 232.031 517.89 232.543 517.472 233.6C517.389 233.752 517.366 233.945 517.347 234.105Z" fill="#0E1520"/>
<line x1="248.56" y1="169.215" x2="243.56" y2="182.215" stroke="#0E1520" stroke-width="1.2"/>
<path d="M242 172L234 175.5L242 179" stroke="#0E1520" stroke-width="1.2"/>
<path d="M251 179L259 175.5L251 172" stroke="#0E1520" stroke-width="1.2"/>
<path d="M401.797 212.835L426.424 238.245H401.797V212.835Z" fill="#CFE0FC" stroke="#0E1520"/>
<path d="M404.15 238.223C404.15 239.51 403.106 240.554 401.819 240.554C400.531 240.554 399.487 239.51 399.487 238.223C399.487 236.935 400.531 235.891 401.819 235.891C403.106 235.891 404.15 236.935 404.15 238.223Z" fill="#F3F7FE"/>
<path d="M401.854 241.041C400.288 241.041 399 239.754 399 238.188C399 236.622 400.288 235.334 401.854 235.334C403.42 235.334 404.707 236.622 404.707 238.188C404.672 239.754 403.42 241.041 401.854 241.041ZM401.854 236.413C400.879 236.413 400.044 237.213 400.044 238.222C400.044 239.197 400.844 240.032 401.854 240.032C402.828 240.032 403.663 239.232 403.663 238.222C403.628 237.213 402.828 236.413 401.854 236.413Z" fill="#0E1520"/>
<path d="M428.719 238.223C428.719 239.51 427.675 240.554 426.387 240.554C425.1 240.554 424.056 239.51 424.056 238.223C424.056 236.935 425.1 235.891 426.387 235.891C427.675 235.891 428.719 236.935 428.719 238.223Z" fill="#F3F7FE"/>
<path d="M426.387 241.041C424.821 241.041 423.534 239.754 423.534 238.188C423.534 236.622 424.821 235.334 426.387 235.334C427.953 235.334 429.241 236.622 429.241 238.188C429.241 239.754 427.953 241.041 426.387 241.041ZM426.387 236.413C425.413 236.413 424.578 237.213 424.578 238.222C424.578 239.197 425.378 240.032 426.387 240.032C427.362 240.032 428.197 239.232 428.197 238.222C428.197 237.213 427.362 236.413 426.387 236.413Z" fill="#0E1520"/>
<path d="M404.15 212.888C404.15 214.176 403.106 215.22 401.819 215.22C400.531 215.22 399.487 214.176 399.487 212.888C399.487 211.601 400.531 210.557 401.819 210.557C403.106 210.557 404.15 211.601 404.15 212.888Z" fill="#F3F7FE"/>
<path d="M401.854 215.707C400.288 215.707 399 214.42 399 212.854C399 211.288 400.288 210 401.854 210C403.42 210 404.707 211.288 404.707 212.854C404.672 214.454 403.42 215.707 401.854 215.707ZM401.854 211.079C400.879 211.079 400.044 211.879 400.044 212.888C400.044 213.863 400.844 214.698 401.854 214.698C402.828 214.698 403.663 213.898 403.663 212.888C403.628 211.879 402.828 211.079 401.854 211.079Z" fill="#0E1520"/>
<path d="M561.504 208.325C615.199 260.575 640.186 314.654 622.167 354.412C590.545 424.185 438.451 423.433 282.455 352.733C126.459 282.033 25.6348 168.158 57.2569 98.3854C73.5383 62.4613 121.756 45.2329 186 46.6215" stroke="url(#paint0_linear_1153_30065)" stroke-width="2.6218" stroke-linecap="round"/>
<rect x="73.7577" y="176.154" width="32.9699" height="15.5322" rx="2.1218" transform="rotate(57.2745 73.7577 176.154)" stroke="#115DF6"/>
<circle cx="609.973" cy="370.973" r="8.62869" stroke="#115DF6" stroke-width="1.3109"/>
<path d="M533.5 71.1269C592.057 87.7987 631.001 116.89 636.57 154.538C647.78 230.317 519.521 312.065 350.096 337.128C180.67 362.191 34.2366 321.077 23.0268 245.297C16.8363 203.449 53.1792 159.78 115.5 124.843" stroke="url(#paint1_linear_1153_30065)" stroke-width="2.6218" stroke-linecap="round"/>
<path d="M640.51 221.26C639.644 221.26 638.605 220.988 637.367 220.418C637.169 220.344 637.095 220.121 637.194 219.923C637.268 219.725 637.491 219.651 637.689 219.75C639.595 220.616 641.03 220.765 641.822 220.121C643.109 219.107 642.862 216.087 641.129 211.88C639.322 207.45 636.105 202.203 632.071 197.08C623.136 185.719 614.474 180.2 611.974 182.155C609.474 184.111 612.815 193.837 621.725 205.197C625.537 210.073 629.695 214.281 633.432 217.102C633.605 217.226 633.63 217.449 633.506 217.622C633.382 217.795 633.16 217.82 632.986 217.696C629.2 214.85 624.992 210.568 621.131 205.643C612.518 194.654 608.311 184.086 611.529 181.537C614.746 179.012 624.027 185.62 632.665 196.585C636.724 201.757 639.991 207.078 641.822 211.558C643.728 216.186 643.876 219.404 642.292 220.666C641.797 221.062 641.203 221.26 640.51 221.26Z" fill="#0E1520"/>
<path d="M613.286 221.235C612.568 221.235 611.974 221.062 611.529 220.691C609.672 219.231 610.167 215.271 612.915 209.529C613.014 209.356 613.236 209.257 613.41 209.356C613.583 209.455 613.682 209.677 613.583 209.851C611.083 215.097 610.489 218.934 611.999 220.122C613.286 221.136 616.157 220.196 619.844 217.498C623.705 214.677 628.061 210.321 632.071 205.198C641.005 193.837 644.322 184.111 641.822 182.156C639.322 180.2 630.66 185.72 621.725 197.08C619.82 199.505 618.112 201.955 616.602 204.356C616.503 204.529 616.256 204.579 616.083 204.48C615.909 204.381 615.86 204.133 615.959 203.96C617.469 201.51 619.226 199.035 621.131 196.609C629.744 185.645 639.025 179.012 642.268 181.562C645.485 184.086 641.253 194.679 632.64 205.643C628.581 210.816 624.176 215.246 620.265 218.092C617.394 220.171 615.018 221.235 613.286 221.235Z" fill="#0E1520"/>
<path d="M626.898 208.44C612.939 208.44 602 205.223 602 201.139C602 197.055 612.939 193.813 626.898 193.813C630.338 193.813 633.655 194.011 636.798 194.407C636.996 194.432 637.144 194.63 637.12 194.828C637.095 195.026 636.897 195.174 636.699 195.149C633.605 194.753 630.314 194.58 626.898 194.58C612.444 194.58 602.742 197.971 602.742 201.139C602.742 204.307 612.444 207.698 626.898 207.698C641.352 207.698 651.054 204.307 651.054 201.139C651.054 199.184 647.391 197.179 641.5 195.941C641.302 195.892 641.179 195.694 641.203 195.496C641.253 195.298 641.451 195.174 641.649 195.199C648.109 196.56 651.796 198.713 651.796 201.139C651.796 205.223 640.857 208.44 626.898 208.44Z" fill="#0E1520"/>
<path d="M630.807 201.758C631.157 199.599 629.691 197.565 627.532 197.215C625.373 196.864 623.339 198.33 622.989 200.489C622.639 202.648 624.105 204.682 626.263 205.032C628.422 205.383 630.456 203.917 630.807 201.758Z" fill="#FD5444"/>
<path d="M634.477 218.801C635.888 217.39 635.888 215.102 634.477 213.691C633.066 212.279 630.778 212.279 629.367 213.691C627.956 215.102 627.956 217.39 629.367 218.801C630.778 220.212 633.066 220.212 634.477 218.801Z" fill="white"/>
<path d="M631.923 220.22C629.72 220.22 627.938 218.438 627.938 216.236C627.938 214.033 629.72 212.251 631.923 212.251C634.125 212.251 635.907 214.033 635.907 216.236C635.907 218.438 634.125 220.22 631.923 220.22ZM631.923 212.993C630.141 212.993 628.68 214.454 628.68 216.236C628.68 218.018 630.141 219.478 631.923 219.478C633.704 219.478 635.165 218.018 635.165 216.236C635.165 214.454 633.729 212.993 631.923 212.993Z" fill="#0E1520"/>
<path d="M625.34 186.576C625.799 184.634 624.596 182.688 622.654 182.229C620.712 181.771 618.766 182.973 618.307 184.916C617.848 186.858 619.051 188.804 620.993 189.263C622.935 189.721 624.882 188.518 625.34 186.576Z" fill="white"/>
<path d="M621.825 189.728C619.622 189.728 617.84 187.946 617.84 185.743C617.84 183.541 619.622 181.759 621.825 181.759C624.027 181.759 625.809 183.541 625.809 185.743C625.809 187.946 624.027 189.728 621.825 189.728ZM621.825 182.501C620.043 182.501 618.583 183.962 618.583 185.743C618.583 187.525 620.043 188.986 621.825 188.986C623.607 188.986 625.067 187.525 625.067 185.743C625.067 183.962 623.607 182.501 621.825 182.501Z" fill="#0E1520"/>
<circle cx="50.8364" cy="291.954" r="2.98801" transform="rotate(-43.0066 50.8364 291.954)" stroke="#115DF6"/>
<circle cx="49.4095" cy="307.159" r="2.98801" transform="rotate(-43.0066 49.4095 307.159)" stroke="#115DF6"/>
<circle cx="73.5211" cy="297.679" r="2.98801" transform="rotate(-43.0066 73.5211 297.679)" stroke="#115DF6"/>
<line x1="57.9379" y1="297.971" x2="53.1485" y2="293.766" stroke="#115DF6"/>
<line x1="58.4526" y1="301.574" x2="52.4549" y2="306.301" stroke="#115DF6"/>
<line x1="70.5083" y1="298.053" x2="62.8116" y2="300.028" stroke="#115DF6"/>
<circle cx="59.1642" cy="297.627" r="22.9648" transform="rotate(-43.0066 59.1642 297.627)" stroke="#0E1520" stroke-dasharray="4 4"/>
<circle cx="61.327" cy="299.946" r="4.43929" transform="rotate(-43.0066 61.327 299.946)" fill="#115DF6"/>
<defs>
<linearGradient id="paint0_linear_1153_30065" x1="250.438" y1="346.957" x2="371" y2="56.9634" gradientUnits="userSpaceOnUse">
<stop stop-color="#5379F6"/>
<stop offset="1" stop-color="white" stop-opacity="0"/>
</linearGradient>
<linearGradient id="paint1_linear_1153_30065" x1="320.054" y1="349.615" x2="296.978" y2="2.67374" gradientUnits="userSpaceOnUse">
<stop stop-color="#98B9FE"/>
<stop offset="1" stop-color="white" stop-opacity="0"/>
</linearGradient>
</defs>
</svg>
